<?xml version="1.0" encoding="UTF-8"?>
<!DOCTYPE svg PUBLIC "-//W3C//DTD SVG 1.1//EN" "http://www.w3.org/Graphics/SVG/1.1/DTD/svg11.dtd">
<!-- Creator: CorelDRAW -->
<svg xmlns="http://www.w3.org/2000/svg" xml:space="preserve" width="48.3116mm" height="14.91mm" version="1.1" style="shape-rendering:geometricPrecision; text-rendering:geometricPrecision; image-rendering:optimizeQuality; fill-rule:evenodd; clip-rule:evenodd"
viewBox="0 0 471.13 145.4"
 xmlns:xlink="http://www.w3.org/1999/xlink"
 xmlns:xodm="http://www.corel.com/coreldraw/odm/2003">
 <defs>
  <style type="text/css">
   <![CDATA[
    .fil6 {fill:#B30809}
    .fil0 {fill:#B30809;fill-rule:nonzero}
    .fil10 {fill:#B30809;fill-rule:nonzero}
    .fil5 {fill:url(#id0)}
    .fil1 {fill:url(#id1);fill-rule:nonzero}
    .fil3 {fill:url(#id2);fill-rule:nonzero}
    .fil2 {fill:url(#id3);fill-rule:nonzero}
    .fil7 {fill:url(#id4);fill-rule:nonzero}
    .fil4 {fill:url(#id5);fill-rule:nonzero}
    .fil8 {fill:url(#id6);fill-rule:nonzero}
    .fil9 {fill:url(#id7);fill-rule:nonzero}
   ]]>
  </style>
  <linearGradient id="id0" gradientUnits="userSpaceOnUse" x1="122.05" y1="-0.17" x2="121.82" y2="121.79">
   <stop offset="0" style="stop-opacity:1; stop-color:red"/>
   <stop offset="1" style="stop-opacity:1; stop-color:#820D0F"/>
  </linearGradient>
  <linearGradient id="id1" gradientUnits="userSpaceOnUse" x1="34.47" y1="124.12" x2="34.47" y2="-1.91">
   <stop offset="0" style="stop-opacity:1; stop-color:#6C6D6D"/>
   <stop offset="1" style="stop-opacity:1; stop-color:#404040"/>
  </linearGradient>
  <linearGradient id="id2" gradientUnits="userSpaceOnUse" xlink:href="#id1" x1="98.48" y1="44.93" x2="98.48" y2="-0.77">
  </linearGradient>
  <linearGradient id="id3" gradientUnits="userSpaceOnUse" xlink:href="#id1" x1="58.21" y1="57.8" x2="58.21" y2="-0.99">
  </linearGradient>
  <linearGradient id="id4" gradientUnits="userSpaceOnUse" x1="356.03" y1="119.51" x2="356.03" y2="-2.03">
   <stop offset="0" style="stop-opacity:1; stop-color:#6C6D6D"/>
   <stop offset="1" style="stop-opacity:1; stop-color:#333333"/>
  </linearGradient>
  <linearGradient id="id5" gradientUnits="userSpaceOnUse" xlink:href="#id1" x1="83.68" y1="117.98" x2="83.68" y2="76.26">
  </linearGradient>
  <linearGradient id="id6" gradientUnits="userSpaceOnUse" xlink:href="#id4" x1="213.42" y1="119.42" x2="213.42" y2="-2.03">
  </linearGradient>
  <linearGradient id="id7" gradientUnits="userSpaceOnUse" xlink:href="#id4" x1="136.79" y1="119.42" x2="136.79" y2="-2.03">
  </linearGradient>
 </defs>
 <g id="Layer_x0020_1">
  <metadata id="CorelCorpID_0Corel-Layer"/>
  <g id="_2614799319920">
   <path class="fil0" d="M57.43 136.69l0.58 0 0 -1.45 -0.58 0 0 1.45zm2.03 0l0 -1.45 1.45 0 0 1.45 -1.45 0zm2.91 0l0 -1.45 7.27 0 0 1.45 -7.27 0zm8.72 0l0 -1.45 1.45 0 0 1.45 -1.45 0zm2.91 0l0 -1.45 1.45 0 0 1.45 -1.45 0zm2.91 0l0 -1.45 7.27 0 0 1.45 -7.27 0zm8.72 0l0 -1.45 1.45 0 0 1.45 -1.45 0zm2.91 0l0 -1.45 1.45 0 0 1.45 -1.45 0zm2.91 0l0 -1.45 7.27 0 0 1.45 -7.27 0zm8.72 0l0 -1.45 1.45 0 0 1.45 -1.45 0zm2.91 0l0 -1.45 1.45 0 0 1.45 -1.45 0zm2.91 0l0 -1.45 7.27 0 0 1.45 -7.27 0zm8.72 0l0 -1.45 1.45 0 0 1.45 -1.45 0zm2.91 0l0 -1.45 1.45 0 0 1.45 -1.45 0zm2.91 0l0 -1.45 7.27 0 0 1.45 -7.27 0zm8.72 0l0 -1.45 1.45 0 0 1.45 -1.45 0zm2.91 0l0 -1.45 1.45 0 0 1.45 -1.45 0zm2.91 0l0 -1.45 7.27 0 0 1.45 -7.27 0zm8.72 0l0 -1.45 1.45 0 0 1.45 -1.45 0zm2.91 0l0 -1.45 1.45 0 0 1.45 -1.45 0zm2.91 0l0 -1.45 7.27 0 0 1.45 -7.27 0zm8.72 0l0 -1.45 1.45 0 0 1.45 -1.45 0zm2.91 0l0 -1.45 1.45 0 0 1.45 -1.45 0zm2.91 0l0 -1.45 7.27 0 0 1.45 -7.27 0zm8.72 0l0 -1.45 1.45 0 0 1.45 -1.45 0zm2.91 0l0 -1.45 1.45 0 0 1.45 -1.45 0zm2.91 0l0 -1.45 7.27 0 0 1.45 -7.27 0zm8.72 0l0 -1.45 1.45 0 0 1.45 -1.45 0zm2.91 0l0 -1.45 1.45 0 0 1.45 -1.45 0zm2.91 0l0 -1.45 7.27 0 0 1.45 -7.27 0zm8.72 0l0 -1.45 1.45 0 0 1.45 -1.45 0zm2.91 0l0 -1.45 1.45 0 0 1.45 -1.45 0zm2.91 0l0 -1.45 7.27 0 0 1.45 -7.27 0zm8.72 0l0 -1.45 1.45 0 0 1.45 -1.45 0zm2.91 0l0 -1.45 1.45 0 0 1.45 -1.45 0zm2.91 0l0 -1.45 7.27 0 0 1.45 -7.27 0zm8.72 0l0 -1.45 1.45 0 0 1.45 -1.45 0zm2.91 0l0 -1.45 1.45 0 0 1.45 -1.45 0zm2.91 0l0 -1.45 7.27 0 0 1.45 -7.27 0zm8.72 0l0 -1.45 1.45 0 0 1.45 -1.45 0zm2.91 0l0 -1.45 1.45 0 0 1.45 -1.45 0zm2.91 0l0 -1.45 7.27 0 0 1.45 -7.27 0zm8.72 0l0 -1.45 1.45 0 0 1.45 -1.45 0zm2.91 0l0 -1.45 1.45 0 0 1.45 -1.45 0zm2.91 0l0 -1.45 7.27 0 0 1.45 -7.27 0zm8.72 0l0 -1.45 1.45 0 0 1.45 -1.45 0zm2.91 0l0 -1.45 1.45 0 0 1.45 -1.45 0zm2.91 0l0 -1.45 7.27 0 0 1.45 -7.27 0zm8.72 0l0 -1.45 1.45 0 0 1.45 -1.45 0zm2.91 0l0 -1.45 1.45 0 0 1.45 -1.45 0zm2.91 0l0 -1.45 7.27 0 0 1.45 -7.27 0zm8.72 0l0 -1.45 1.45 0 0 1.45 -1.45 0zm2.91 0l0 -1.45 1.45 0 0 1.45 -1.45 0zm2.91 0l0 -1.45 7.27 0 0 1.45 -7.27 0zm8.72 0l0 -1.45 1.45 0 0 1.45 -1.45 0zm2.91 0l0 -1.45 1.45 0 0 1.45 -1.45 0zm2.91 0l0 -1.45 7.27 0 0 1.45 -7.27 0zm8.72 0l0 -1.45 1.45 0 0 1.45 -1.45 0zm2.91 0l0 -1.45 1.45 0 0 1.45 -1.45 0zm2.91 0l0 -1.45 7.27 0 0 1.45 -7.27 0zm8.72 0l0 -1.45 1.45 0 0 1.45 -1.45 0zm2.91 0l0 -1.45 1.45 0 0 1.45 -1.45 0zm2.91 0l0 -1.45 7.27 0 0 1.45 -7.27 0z"/>
   <path class="fil1" d="M49.1 36.39l-3.71 -0.01 0.07 -9.57 3.71 0.02 -0.07 9.57zm10.46 -10.59l-15.33 -0.07c-0.78,-0 -1.43,0.42 -1.59,0.99l0 9.9c0.23,0.47 0.82,0.81 1.51,0.81l15.41 0.07 0 -11.7zm-10.46 27.53l-3.71 -0.02 0.07 -13.03 3.71 0.02 -0.07 13.02zm10.46 -14.41l-15.33 -0.09c-0.78,-0 -1.43,0.57 -1.59,1.35l0 13.48c0.23,0.65 0.82,1.1 1.51,1.11l15.41 0.09 0 -15.93zm0 -27.64l-16.92 -0.1 0 -10.97 16.92 0.1 0 10.98zm-3.57 12.95l0.96 -0.01 0 -11.2 -1.02 0.01c-0.08,0 -0.15,0.07 -0.15,0.16l0.06 10.88c-0,0.09 0.07,0.16 0.15,0.16zm-13.14 0.08l1.83 -0.01c0.08,0 0.15,-0.07 0.15,-0.16l-0.06 -10.88c0,-0.09 -0.07,-0.16 -0.15,-0.16l-1.83 0.01c-0.08,-0 -0.15,0.07 -0.15,0.16l0.06 10.88c0,0.08 0.06,0.15 0.15,0.15zm3.28 -0.02l1.83 -0.01c0.08,-0 0.14,-0.07 0.14,-0.16l-0.06 -10.88c0,-0.09 -0.07,-0.16 -0.15,-0.16l-1.83 0.01c-0.08,-0 -0.15,0.07 -0.15,0.16l0.06 10.88c0,0.09 0.06,0.16 0.15,0.16zm3.28 -0.02l1.83 -0.01c0.08,0 0.15,-0.07 0.15,-0.16l-0.05 -10.88c-0,-0.09 -0.07,-0.16 -0.15,-0.16l-1.83 0.01c-0.08,0 -0.15,0.07 -0.15,0.16l0.06 10.88c0,0.08 0.07,0.15 0.15,0.15zm3.29 -0.02l1.83 -0.01c0.08,0 0.15,-0.07 0.15,-0.16l-0.06 -10.88c-0,-0.09 -0.07,-0.16 -0.15,-0.16l-1.83 0.01c-0.08,0 -0.15,0.07 -0.15,0.16l0.06 10.88c0,0.08 0.07,0.15 0.15,0.15zm-9.8 63.1l-1.39 -0.01c-0.04,0 -0.07,-0.03 -0.07,-0.08l0.05 -9.12c0,-0.04 0.03,-0.08 0.07,-0.07l1.39 0.01c0.04,0 0.07,0.04 0.07,0.07l-0.05 9.12c0,0.04 -0.03,0.08 -0.07,0.08zm2.37 0.01l-1.39 -0.01c-0.04,-0 -0.07,-0.03 -0.07,-0.07l0.05 -9.12c-0,-0.04 0.03,-0.07 0.07,-0.07l1.39 0.01c0.04,0 0.07,0.03 0.07,0.07l-0.05 9.12c0,0.04 -0.03,0.07 -0.07,0.07zm2.37 0.01l-1.39 -0.01c-0.04,0 -0.07,-0.03 -0.07,-0.07l0.05 -9.12c0,-0.04 0.03,-0.07 0.07,-0.08l1.39 0.01c0.04,0 0.07,0.03 0.07,0.07l-0.05 9.12c-0,0.04 -0.03,0.07 -0.07,0.08zm2.37 0.01l-1.39 -0.01c-0.04,0 -0.07,-0.03 -0.07,-0.07l0.05 -9.12c0,-0.04 0.03,-0.07 0.07,-0.07l1.39 0.01c0.04,0 0.07,0.03 0.07,0.07l-0.05 9.12c-0,0.04 -0.03,0.07 -0.07,0.07zm2.37 0.01l-1.39 -0.01c-0.04,0 -0.07,-0.03 -0.07,-0.07l0.05 -9.12c0,-0.04 0.03,-0.07 0.07,-0.07l1.39 0c0.04,0 0.07,0.03 0.07,0.07l-0.05 9.12c-0,0.04 -0.03,0.08 -0.07,0.07zm2.37 0.02l-1.39 -0.01c-0.04,0 -0.07,-0.03 -0.06,-0.07l0.04 -9.12c0,-0.04 0.03,-0.08 0.07,-0.07l1.39 0.01c0.03,0 0.07,0.03 0.07,0.07l-0.05 9.12c0,0.04 -0.03,0.07 -0.07,0.07zm2.37 0.02l-1.39 -0.01c-0.04,-0 -0.07,-0.03 -0.07,-0.07l0.05 -9.12c-0,-0.04 0.03,-0.07 0.07,-0.08l1.39 0.01c0.04,-0 0.07,0.03 0.07,0.08l-0.05 9.12c0,0.04 -0.03,0.07 -0.07,0.07zm2.37 0.01l-1.39 -0.01c-0.04,0 -0.07,-0.03 -0.07,-0.07l0.05 -9.12c-0,-0.04 0.03,-0.07 0.07,-0.07l1.39 0.01 0.04 0.02 0 6.14 -0.02 3.04c0,0.04 -0.03,0.07 -0.07,0.08zm-10.47 -16.2l-3.71 -0.02 0.07 -13.02 3.71 0.02 -0.07 13.03zm-0.03 4.61l-3.71 -0.02 0.01 -1.88 3.71 0.02 -0.01 1.88zm10.58 -2.17l-16.49 -0.1c-0.35,0 -0.64,0.31 -0.65,0.68l-0.01 1.13c-0,0.38 0.28,0.69 0.64,0.69l16.5 0.1 0 -2.51zm0 -17.49l-15.42 -0.09c-0.9,-0 -1.62,0.77 -1.63,1.72l-0.07 12.48c-0.01,0.95 0.72,1.73 1.61,1.74l15.5 0.09 0 -15.94zm-8.51 39.87l-3 -6.18 3.56 0.02 1.73 6.17 -2.28 -0.01zm8.51 -6.98l-13.66 -0.09 -0.01 1.75 4.27 6.43 7.7 0.05 1.7 0.01 0 -8.15zm-6.27 19.93l0.03 -9.64 1.76 0.01 -0.02 9.57 2.62 9.64 -4.37 -9.58zm6.27 -10.53l-8.24 -0.05c-0.26,-0.01 -0.47,0.22 -0.47,0.5l-0.02 9.82c0,0.28 0.21,0.5 0.47,0.51l0.48 0c0.36,0.01 0.69,0.22 0.85,0.57l5.59 12.14 1.35 -1.81 0 -21.68z"/>
   <polygon class="fil2" points="81.51,42.7 124.17,0 141.69,0 81.39,56.8 "/>
   <polygon class="fil3" points="119.43,35.15 155.88,0 173.91,0 128.12,44.16 "/>
   <polygon class="fil4" points="153.58,117.28 111.78,76.96 103.09,85.98 135.55,117.28 "/>
   <path class="fil5" d="M58.22 0.36c12.04,0 24.08,0 36.11,0l0 20.25 -12.52 11.34 0 -19.07 -11.05 0 0 74.1 40.82 -42.02 74.07 72.32 -17.91 0 -56.16 -54.9 -53.36 59.61 0 -121.63z"/>
   <polygon class="fil6" points="65.01,133 112.67,127.44 58.22,136.77 3.78,127.44 51.44,133 -0,117.77 52.75,131.79 10.07,112.46 52.64,130.32 28.48,112.34 58.21,132.05 87.97,112.34 63.81,130.32 106.38,112.46 63.7,131.79 116.45,117.77 "/>
   <polygon class="fil7" points="399.37,117.46 387.99,92.13 387.99,0.02 409.77,0.02 409.77,98.92 471.13,98.92 471.13,117.36 "/>
   <path class="fil8" d="M262.32 117.36l0.13 -0.28 0.2 0.28 -0.32 0zm9.16 -20.13l43.65 -97.22 21.45 0 52.97 117.35 -22.79 0 -11.66 -27.15 -58.69 0 -11.12 27.12 -13.81 -20.1zm76.27 -24.13l-26.42 -61.52 8.72 0 -26.33 61.52 44.03 0z"/>
   <path class="fil9" d="M195.81 117.36l-20.49 -20.04 0 -88.92 8.69 -8.38 39.59 0c10.39,0 19.3,1.68 26.74,5.03 7.43,3.35 13.16,8.15 17.18,14.42 4.03,6.26 6.03,13.69 6.03,22.3 0,8.6 -2,16 -6.03,22.21 -4.02,6.2 -9.75,10.95 -17.18,14.25 -0.56,0.25 -1.13,0.49 -1.7,0.71l26.93 38.43 -23.47 0 -23.91 -34.31c-1.5,0.08 -3.02,0.11 -4.58,0.11l-36.21 0 9.72 -9.89 0 44.09 -1.29 -0.01zm1.29 -41.74l-9.72 -10.39 35.2 0c9.61,0 16.85,-2.06 21.71,-6.2 4.86,-4.13 7.29,-9.89 7.29,-17.26 0,-7.49 -2.43,-13.24 -7.29,-17.27 -4.86,-4.02 -12.1,-6.03 -21.71,-6.03l-35.2 0 9.72 -10.73 0 67.89z"/>
   <g>
    <path class="fil10" d="M409.76 129.74l0 4.57c0,1.26 1.07,2.47 1.98,2.84 0.83,0.35 1.06,0.29 2.17,0.29l9.82 0c2.27,0 1.86,-0.62 1.86,4.4 0,0.23 -0.04,0.23 -0.08,0.42 -0.92,0.21 -10.67,0.09 -12.44,0.09 -0.73,0 0.03,-1.61 -0.59,-1.61l-2.71 0c0,1.2 -0.13,2.28 0.66,3.24 0.72,0.88 1.57,1.42 2.82,1.42l11.85 0c1.86,0 3.47,-1.53 3.47,-3.39l0 -4.32c0,-1.26 -0.96,-2.38 -1.83,-2.83 -1.13,-0.58 -2.78,-0.39 -4.35,-0.39 -3.13,0 -6.26,0 -9.4,0 -0.12,-0.17 -0.25,-0.22 -0.25,-0.42 0,-1 -0.1,-3.59 0.09,-4.4 0.92,-0.21 10.6,-0.08 12.36,-0.08 0.58,0 0.42,0.97 0.42,1.61l2.96 0c0,-1.05 0.1,-1.77 -0.34,-2.71 -0.19,-0.41 -0.47,-0.68 -0.78,-0.99 -0.6,-0.59 -1.44,-0.95 -2.6,-0.95l-11.34 0c-2.13,0 -3.72,1.54 -3.72,3.22z"/>
    <path class="fil10" d="M390.55 130.16c0,-0.28 0.15,-0.59 0.42,-0.59 1.76,0 11.44,-0.13 12.36,0.08 0.2,0.85 0.09,4.99 0.09,6.18l-12.87 0 0 -5.67zm-2.96 -0.34l0 15.32c0,0.19 0.06,0.25 0.25,0.25l0.01 0 2.71 0 0 -6.52 12.87 0 0 6.26c0,0.19 0.06,0.25 0.24,0.25l0.01 0 2.71 0 0 -15.83c0,-0.45 -0.25,-0.99 -0.42,-1.28 -0.21,-0.36 -0.46,-0.66 -0.78,-0.91 -0.77,-0.61 -1.35,-0.86 -2.53,-0.86l-11.34 0c-2.12,0 -3.73,1.55 -3.73,3.3z"/>
    <path class="fil10" d="M431.86 126.86l0 18.28c0,0.14 0.12,0.22 0.31,0.25l1.55 0 15.41 0c0.18,-0.76 0.08,-1.89 0.08,-2.71 0,-0.2 -0.14,-0.34 -0.34,-0.34l-13.97 0 0 -4.91 11.26 0c0.2,0 0.25,-0.06 0.25,-0.25l0 -2.45c0,-0.19 -0.06,-0.25 -0.25,-0.25l-11.26 0 0 -4.91 13.97 0c0.2,0 0.34,-0.14 0.34,-0.34l0 -2.37c0,-0.2 -0.14,-0.34 -0.34,-0.34l-16.68 0c-0.2,0 -0.34,0.14 -0.34,0.34z"/>
    <path class="fil10" d="M366.67 126.78l0 18.37 0 0.01c0,0.18 0.06,0.24 0.24,0.24l0.01 0 18.37 0c0.4,0 0.25,-0.66 0.25,-1.35 -0,-0.54 0,-1.07 0,-1.61 -0.19,-0.04 -0.2,-0.08 -0.42,-0.08l-15.41 0 0 -15.58c0,-0.19 -0.06,-0.25 -0.24,-0.25l-0.01 0 -2.54 0 -0.01 0c-0.18,0 -0.24,0.06 -0.24,0.24l0 0.01z"/>
    <path class="fil10" d="M471.13 145.4l0 -0.02 0 -0.02 0 -0.02 0 -0.02 0 -0.02 0 -0.02c-0,-0.32 -0.03,-0.54 -0.24,-0.76l-1.49 -1.77c-0.05,-0.07 -0.12,-0.13 -0.17,-0.2 -0.01,-0.01 -0.01,-0.02 -0.02,-0.03l-0.25 -0.3c-0.11,-0.13 -0.22,-0.27 -0.33,-0.41 -0.02,-0.02 -0.03,-0.03 -0.04,-0.05 -0.01,-0.02 -0.03,-0.04 -0.04,-0.05l-0.38 -0.45c-0.01,-0.01 -0.01,-0.01 -0.02,-0.02l-0.53 -0.62c-0.02,-0.02 -0.02,-0.03 -0.04,-0.05l-0.72 -0.85c-0.15,-0.17 -0.35,-0.42 -0.49,-0.61 -0.05,-0.07 -0.11,-0.14 -0.16,-0.21 -0.05,-0.07 -0.1,-0.14 -0.15,-0.22 0.64,0 1.34,0.01 1.97,-0.05 0.22,-0.02 0.43,-0.06 0.64,-0.11 0.21,-0.05 0.55,-0.16 0.74,-0.27 0.08,-0.05 0.16,-0.08 0.24,-0.14l0.22 -0.16c0.02,-0.02 0.05,-0.04 0.07,-0.06l0.13 -0.12c0.03,-0.03 0.07,-0.06 0.09,-0.09 0.01,-0.02 0.02,-0.02 0.03,-0.03l0.28 -0.35c0.11,-0.15 0.2,-0.31 0.29,-0.47l0.08 -0.17c0.01,-0.03 0.03,-0.05 0.04,-0.08 0.13,-0.3 0.16,-0.49 0.21,-0.8 0.01,-0.04 0.01,-0.07 0.01,-0.12l0.01 -0.12c0.01,-0.16 0.01,-0.32 0.01,-0.49l0 -0.01 0 -0.01 0 -0.01 0 -0.01 0 -0.01 0 -0.01 0 -0.01 0 -0.01 0 -0.01 0 -0.01 0 -0.01 0 -0.01 0 -0.01 0 -0.01 0 -0.01 0 -0.01 0 -0.01 0 -0.01 0 -0.01 0 -0.01 0 -0.01 0 -0.01 0 -0.01 0 -0.01 0 -0.01 0 -0.01 0 -0.01 0 -0.01 0 -4.54 0 -0.02 0 -0.02 0 -0.02 0 -0.02 0 -0.17 0 -0.02 0 -0.01c-0,-0.07 -0.01,-0.16 -0.01,-0.23 0,-0.13 -0.03,-0.33 -0.05,-0.45 -0.1,-0.54 -0.39,-1 -0.73,-1.41l-0.33 -0.36c-0.01,-0.01 -0.02,-0.02 -0.03,-0.03l-0.21 -0.17c-0.22,-0.17 -0.47,-0.31 -0.73,-0.4 -0.35,-0.13 -0.57,-0.16 -0.93,-0.21 -0.04,-0.01 -0.07,-0.01 -0.11,-0.01 -0.1,-0.01 -0.26,-0.03 -0.36,-0.03l-0.75 -0.01 -0.03 0 -0.03 0 -0.03 0 -0.03 0c-0.05,0 -0.07,0.01 -0.12,0.01 -0.08,0 -0.17,0 -0.25,0 -0.09,0 -0.16,0.01 -0.25,0.01l-13.62 0c-0.19,0 -0.2,-0.03 -0.19,0.06 0,0.08 0,0.17 0,0.26l0 17.14c0,0.17 -0,0.33 0,0.5 0,0.08 -0.01,0.16 -0.01,0.24l-0.01 0.11 0 0.2c0,0.06 0.01,0.12 0.03,0.15 0.04,0.08 0.15,0.11 0.26,0.12l0.33 0 0.01 0 0.01 0 0.01 0 0.01 0 2.02 0 0.02 0 0.02 0 0.01 0 0.01 0 0.01 0c0.04,-0 0.07,-0.01 0.12,-0.06 0.14,-0.12 0.14,-0.43 0.15,-0.61 0,-0.07 0.01,-0.16 0,-0.24l-0.02 -0.86c0,-0.05 -0.01,-0.07 -0.01,-0.12 0,-0.08 0,-0.17 -0.01,-0.24 -0.01,-0.07 0,-0.17 0,-0.25 0,-0.09 -0.01,-0.16 -0.01,-0.25 0,-1.35 0,-2.69 0,-4.04l6.86 0c0.01,0.03 0.26,0.33 0.3,0.37 0.02,0.02 0.03,0.03 0.04,0.05 0.03,0.04 0.05,0.07 0.08,0.1 0.03,0.04 0.06,0.07 0.09,0.11 0.2,0.24 0.39,0.49 0.6,0.73 0.17,0.21 0.33,0.43 0.51,0.63l1.1 1.28c0.01,0.01 0.01,0.01 0.02,0.03 0.01,0.01 0.01,0.01 0.02,0.03l0.09 0.1c0.03,0.04 0.06,0.07 0.09,0.1 0.01,0.01 0.01,0.01 0.02,0.03l0.94 1.11c0.03,0.04 0.06,0.07 0.09,0.11l1.11 1.36c0.07,0.09 0.37,0.46 0.4,0.56l3.47 0zm-15.83 -10.24l0 -4.99c0,-0.28 0.15,-0.59 0.42,-0.59l12.02 0c0.2,0 0.42,0.23 0.42,0.42l0 0 0 0.02 0 5.33c0,0.2 -0.23,0.42 -0.42,0.42l-11.85 0c-0.37,0 -0.56,-0.17 -0.59,-0.5l0 -0 -0 -0.03 0 -0.01 -0 -0 0 -0.02 0 -0 0 -0.02 -0 -0.02z"/>
   </g>
  </g>
 </g>
</svg>
